<svg id="visual" viewBox="0 0 900 600" width="900" height="600" xmlns="http://www.w3.org/2000/svg" xmlns:xlink="http://www.w3.org/1999/xlink" version="1.1"><rect x="0" y="0" width="900" height="600" fill="#0066FF"></rect><defs><linearGradient id="grad1_0" x1="33.3%" y1="0%" x2="100%" y2="100%"><stop offset="20%" stop-color="#ff0066" stop-opacity="1"></stop><stop offset="80%" stop-color="#ff0066" stop-opacity="1"></stop></linearGradient></defs><defs><linearGradient id="grad1_1" x1="33.3%" y1="0%" x2="100%" y2="100%"><stop offset="20%" stop-color="#ff0066" stop-opacity="1"></stop><stop offset="80%" stop-color="#fb007f" stop-opacity="1"></stop></linearGradient></defs><defs><linearGradient id="grad1_2" x1="33.3%" y1="0%" x2="100%" y2="100%"><stop offset="20%" stop-color="#f10099" stop-opacity="1"></stop><stop offset="80%" stop-color="#fb007f" stop-opacity="1"></stop></linearGradient></defs><defs><linearGradient id="grad1_3" x1="33.3%" y1="0%" x2="100%" y2="100%"><stop offset="20%" stop-color="#f10099" stop-opacity="1"></stop><stop offset="80%" stop-color="#e018b2" stop-opacity="1"></stop></linearGradient></defs><defs><linearGradient id="grad1_4" x1="33.3%" y1="0%" x2="100%" y2="100%"><stop offset="20%" stop-color="#c833ca" stop-opacity="1"></stop><stop offset="80%" stop-color="#e018b2" stop-opacity="1"></stop></linearGradient></defs><defs><linearGradient id="grad1_5" x1="33.3%" y1="0%" x2="100%" y2="100%"><stop offset="20%" stop-color="#c833ca" stop-opacity="1"></stop><stop offset="80%" stop-color="#a748e0" stop-opacity="1"></stop></linearGradient></defs><defs><linearGradient id="grad1_6" x1="33.3%" y1="0%" x2="100%" y2="100%"><stop offset="20%" stop-color="#7858f2" stop-opacity="1"></stop><stop offset="80%" stop-color="#a748e0" stop-opacity="1"></stop></linearGradient></defs><defs><linearGradient id="grad1_7" x1="33.3%" y1="0%" x2="100%" y2="100%"><stop offset="20%" stop-color="#7858f2" stop-opacity="1"></stop><stop offset="80%" stop-color="#0066ff" stop-opacity="1"></stop></linearGradient></defs><defs><linearGradient id="grad2_0" x1="0%" y1="0%" x2="66.7%" y2="100%"><stop offset="20%" stop-color="#ff0066" stop-opacity="1"></stop><stop offset="80%" stop-color="#ff0066" stop-opacity="1"></stop></linearGradient></defs><defs><linearGradient id="grad2_1" x1="0%" y1="0%" x2="66.7%" y2="100%"><stop offset="20%" stop-color="#fb007f" stop-opacity="1"></stop><stop offset="80%" stop-color="#ff0066" stop-opacity="1"></stop></linearGradient></defs><defs><linearGradient id="grad2_2" x1="0%" y1="0%" x2="66.7%" y2="100%"><stop offset="20%" stop-color="#fb007f" stop-opacity="1"></stop><stop offset="80%" stop-color="#f10099" stop-opacity="1"></stop></linearGradient></defs><defs><linearGradient id="grad2_3" x1="0%" y1="0%" x2="66.7%" y2="100%"><stop offset="20%" stop-color="#e018b2" stop-opacity="1"></stop><stop offset="80%" stop-color="#f10099" stop-opacity="1"></stop></linearGradient></defs><defs><linearGradient id="grad2_4" x1="0%" y1="0%" x2="66.7%" y2="100%"><stop offset="20%" stop-color="#e018b2" stop-opacity="1"></stop><stop offset="80%" stop-color="#c833ca" stop-opacity="1"></stop></linearGradient></defs><defs><linearGradient id="grad2_5" x1="0%" y1="0%" x2="66.7%" y2="100%"><stop offset="20%" stop-color="#a748e0" stop-opacity="1"></stop><stop offset="80%" stop-color="#c833ca" stop-opacity="1"></stop></linearGradient></defs><defs><linearGradient id="grad2_6" x1="0%" y1="0%" x2="66.7%" y2="100%"><stop offset="20%" stop-color="#a748e0" stop-opacity="1"></stop><stop offset="80%" stop-color="#7858f2" stop-opacity="1"></stop></linearGradient></defs><defs><linearGradient id="grad2_7" x1="0%" y1="0%" x2="66.7%" y2="100%"><stop offset="20%" stop-color="#0066ff" stop-opacity="1"></stop><stop offset="80%" stop-color="#7858f2" stop-opacity="1"></stop></linearGradient></defs><g transform="translate(900, 0)"><path d="M0 486.7C-41.3 454.9 -82.5 423 -134.7 414.7C-187 406.3 -250.1 421.5 -286.1 393.8C-322.1 366 -330.8 295.3 -333.3 242.2C-335.8 189 -332.1 153.3 -356.6 115.9C-381.2 78.4 -434 39.2 -486.7 0L0 0Z" fill="#5560f9"></path><path d="M0 425.9C-36.1 398 -72.2 370.1 -117.9 362.8C-163.6 355.5 -218.9 368.8 -250.3 344.6C-281.8 320.3 -289.5 258.4 -291.7 211.9C-293.8 165.4 -290.6 134.2 -312.1 101.4C-333.5 68.6 -379.7 34.3 -425.9 0L0 0Z" fill="#9251e9"></path><path d="M0 365.1C-30.9 341.2 -61.9 317.2 -101 311C-140.2 304.7 -187.6 316.1 -214.6 295.3C-241.6 274.5 -248.1 221.5 -250 181.6C-251.9 141.7 -249.1 115 -267.5 86.9C-285.9 58.8 -325.5 29.4 -365.1 0L0 0Z" fill="#b93ed6"></path><path d="M0 304.2C-25.8 284.3 -51.6 264.4 -84.2 259.2C-116.8 254 -156.3 263.5 -178.8 246.1C-201.3 228.8 -206.8 184.6 -208.3 151.4C-209.9 118.1 -207.6 95.8 -222.9 72.4C-238.2 49 -271.2 24.5 -304.2 0L0 0Z" fill="#d527bf"></path><path d="M0 243.4C-20.6 227.4 -41.3 211.5 -67.4 207.3C-93.5 203.2 -125.1 210.8 -143.1 196.9C-161 183 -165.4 147.7 -166.7 121.1C-167.9 94.5 -166.1 76.7 -178.3 57.9C-190.6 39.2 -217 19.6 -243.4 0L0 0Z" fill="#e902a6"></path><path d="M0 182.5C-15.5 170.6 -30.9 158.6 -50.5 155.5C-70.1 152.4 -93.8 158.1 -107.3 147.7C-120.8 137.3 -124.1 110.8 -125 90.8C-125.9 70.9 -124.5 57.5 -133.7 43.5C-142.9 29.4 -162.7 14.7 -182.5 0L0 0Z" fill="#f6008c"></path><path d="M0 121.7C-10.3 113.7 -20.6 105.7 -33.7 103.7C-46.7 101.6 -62.5 105.4 -71.5 98.4C-80.5 91.5 -82.7 73.8 -83.3 60.5C-84 47.2 -83 38.3 -89.2 29C-95.3 19.6 -108.5 9.8 -121.7 0L0 0Z" fill="#fe0073"></path><path d="M0 60.8C-5.2 56.9 -10.3 52.9 -16.8 51.8C-23.4 50.8 -31.3 52.7 -35.8 49.2C-40.3 45.8 -41.4 36.9 -41.7 30.3C-42 23.6 -41.5 19.2 -44.6 14.5C-47.6 9.8 -54.2 4.9 -60.8 0L0 0Z" fill="#ff0066"></path></g><g transform="translate(0, 600)"><path d="M0 -486.7C45.7 -469.5 91.4 -452.3 142.8 -439.4C194.1 -426.5 251 -418 276.8 -381C302.7 -344.1 297.3 -278.8 329.3 -239.2C361.2 -199.7 430.5 -186 462.9 -150.4C495.4 -114.8 491.1 -57.4 486.7 0L0 0Z" fill="#5560f9"></path><path d="M0 -425.9C40 -410.8 80 -395.7 124.9 -384.5C169.8 -373.2 219.7 -365.7 242.2 -333.4C264.8 -301.1 260.2 -243.9 288.1 -209.3C316.1 -174.7 376.7 -162.7 405.1 -131.6C433.5 -100.5 429.7 -50.2 425.9 0L0 0Z" fill="#9251e9"></path><path d="M0 -365.1C34.3 -352.1 68.6 -339.2 107.1 -329.5C145.6 -319.9 188.3 -313.5 207.6 -285.8C227 -258.1 223 -209.1 247 -179.4C270.9 -149.8 322.8 -139.5 347.2 -112.8C371.5 -86.1 368.3 -43.1 365.1 0L0 0Z" fill="#b93ed6"></path><path d="M0 -304.2C28.6 -293.4 57.1 -282.7 89.2 -274.6C121.3 -266.6 156.9 -261.2 173 -238.2C189.2 -215.1 185.8 -174.2 205.8 -149.5C225.8 -124.8 269 -116.2 289.3 -94C309.6 -71.8 306.9 -35.9 304.2 0L0 0Z" fill="#d527bf"></path><path d="M0 -243.4C22.9 -234.8 45.7 -226.1 71.4 -219.7C97 -213.3 125.5 -209 138.4 -190.5C151.3 -172.1 148.7 -139.4 164.6 -119.6C180.6 -99.8 215.2 -93 231.5 -75.2C247.7 -57.4 245.5 -28.7 243.4 0L0 0Z" fill="#e902a6"></path><path d="M0 -182.5C17.1 -176.1 34.3 -169.6 53.5 -164.8C72.8 -159.9 94.1 -156.7 103.8 -142.9C113.5 -129 111.5 -104.5 123.5 -89.7C135.5 -74.9 161.4 -69.7 173.6 -56.4C185.8 -43.1 184.2 -21.5 182.5 0L0 0Z" fill="#f6008c"></path><path d="M0 -121.7C11.4 -117.4 22.9 -113.1 35.7 -109.8C48.5 -106.6 62.8 -104.5 69.2 -95.3C75.7 -86 74.3 -69.7 82.3 -59.8C90.3 -49.9 107.6 -46.5 115.7 -37.6C123.8 -28.7 122.8 -14.4 121.7 0L0 0Z" fill="#fe0073"></path><path d="M0 -60.8C5.7 -58.7 11.4 -56.5 17.8 -54.9C24.3 -53.3 31.4 -52.2 34.6 -47.6C37.8 -43 37.2 -34.8 41.2 -29.9C45.2 -25 53.8 -23.2 57.9 -18.8C61.9 -14.4 61.4 -7.2 60.8 0L0 0Z" fill="#ff0066"></path></g></svg>